<?xml version="1.0" encoding="UTF-8" standalone="no"?>
<svg
   xmlns:dc="http://purl.org/dc/elements/1.1/"
   xmlns:cc="http://creativecommons.org/ns#"
   xmlns:rdf="http://www.w3.org/1999/02/22-rdf-syntax-ns#"
   xmlns:svg="http://www.w3.org/2000/svg"
   xmlns="http://www.w3.org/2000/svg"
   xmlns:sodipodi="http://sodipodi.sourceforge.net/DTD/sodipodi-0.dtd"
   xmlns:inkscape="http://www.inkscape.org/namespaces/inkscape"
   inkscape:version="1.0 (4035a4fb49, 2020-05-01)"
   sodipodi:docname="android.svg"
   xml:space="preserve"
   viewBox="0 0 182.68018 215.89677"
   height="215.89676"
   width="182.68018"
   y="0px"
   x="0px"
   id="Capa_1"
   version="1.1"><metadata
   id="metadata49"><rdf:RDF><cc:Work
       rdf:about=""><dc:format>image/svg+xml</dc:format><dc:type
         rdf:resource="http://purl.org/dc/dcmitype/StillImage" /><dc:title></dc:title></cc:Work></rdf:RDF></metadata><defs
   id="defs47" /><sodipodi:namedview
   fit-margin-bottom="0"
   fit-margin-right="0"
   fit-margin-left="0"
   fit-margin-top="0"
   inkscape:current-layer="Capa_1"
   inkscape:window-maximized="1"
   inkscape:window-y="-8"
   inkscape:window-x="3832"
   inkscape:cy="344.89114"
   inkscape:cx="186.11854"
   inkscape:zoom="0.7684686"
   showgrid="false"
   id="namedview45"
   inkscape:window-height="1017"
   inkscape:window-width="1920"
   inkscape:pageshadow="2"
   inkscape:pageopacity="0"
   guidetolerance="10"
   gridtolerance="10"
   objecttolerance="10"
   borderopacity="1"
   bordercolor="#666666"
   pagecolor="#ffffff" />
<g
   transform="matrix(0.39037563,0,0,0.39037563,-16.608141,-8.6685175e-5)"
   style="fill:#f9f9f9"
   id="g12">
	<g
   style="fill:#f9f9f9"
   id="g10">
		<path
   style="fill:#f9f9f9"
   id="path2"
   d="m 76.774,179.141 c -9.529,0 -17.614,3.323 -24.26,9.969 -6.646,6.646 -9.97,14.621 -9.97,23.929 v 142.914 c 0,9.541 3.323,17.619 9.97,24.266 6.646,6.646 14.731,9.97 24.26,9.97 9.522,0 17.558,-3.323 24.101,-9.97 6.53,-6.646 9.804,-14.725 9.804,-24.266 V 213.039 c 0,-9.309 -3.323,-17.283 -9.97,-23.929 -6.647,-6.646 -14.627,-9.969 -23.935,-9.969 z" />
		<path
   style="fill:#f9f9f9"
   id="path4"
   d="M 351.972,50.847 375.57,7.315 c 1.549,-2.882 0.998,-5.092 -1.658,-6.646 -2.883,-1.34 -5.098,-0.661 -6.646,1.989 l -23.928,43.88 c -21.055,-9.309 -43.324,-13.972 -66.807,-13.972 -23.488,0 -45.759,4.664 -66.806,13.972 L 185.796,2.658 c -1.555,-2.65 -3.77,-3.323 -6.646,-1.989 -2.662,1.561 -3.213,3.764 -1.658,6.646 l 23.599,43.532 c -23.929,12.203 -42.987,29.198 -57.167,51.022 -14.18,21.836 -21.273,45.698 -21.273,71.628 h 307.426 c 0,-25.924 -7.094,-49.787 -21.273,-71.628 C 394.623,80.045 375.675,63.05 351.972,50.847 Z m -136.433,63.318 c -2.552,2.558 -5.6,3.831 -9.143,3.831 -3.55,0 -6.536,-1.273 -8.972,-3.831 -2.436,-2.546 -3.654,-5.582 -3.654,-9.137 0,-3.543 1.218,-6.585 3.654,-9.137 2.436,-2.546 5.429,-3.819 8.972,-3.819 3.543,0 6.591,1.273 9.143,3.819 2.546,2.558 3.825,5.594 3.825,9.137 -0.007,3.549 -1.285,6.591 -3.825,9.137 z m 140.086,0 c -2.441,2.558 -5.434,3.831 -8.971,3.831 -3.551,0 -6.598,-1.273 -9.145,-3.831 -2.551,-2.546 -3.824,-5.582 -3.824,-9.137 0,-3.543 1.273,-6.585 3.824,-9.137 2.547,-2.546 5.594,-3.819 9.145,-3.819 3.543,0 6.529,1.273 8.971,3.819 2.438,2.558 3.654,5.594 3.654,9.137 0,3.549 -1.217,6.591 -3.654,9.137 z" />
		<path
   style="fill:#f9f9f9"
   id="path6"
   d="m 123.971,406.804 c 0,10.202 3.543,18.838 10.63,25.925 7.093,7.087 15.729,10.63 25.924,10.63 h 24.596 l 0.337,75.454 c 0,9.528 3.323,17.619 9.969,24.266 6.646,6.647 14.627,9.97 23.929,9.97 9.523,0 17.613,-3.323 24.26,-9.97 6.647,-6.647 9.97,-14.737 9.97,-24.266 v -75.447 h 45.864 v 75.447 c 0,9.528 3.322,17.619 9.969,24.266 6.647,6.647 14.73,9.97 24.26,9.97 9.523,0 17.613,-3.323 24.26,-9.97 6.647,-6.647 9.969,-14.737 9.969,-24.266 v -75.447 h 24.928 c 9.969,0 18.494,-3.544 25.594,-10.631 7.086,-7.087 10.631,-15.723 10.631,-25.924 V 185.45 h -305.09 z" />
		<path
   style="fill:#f9f9f9"
   id="path8"
   d="m 476.275,179.141 c -9.309,0 -17.283,3.274 -23.93,9.804 -6.646,6.542 -9.969,14.578 -9.969,24.094 v 142.914 c 0,9.541 3.322,17.619 9.969,24.266 6.647,6.647 14.627,9.97 23.93,9.97 9.523,0 17.613,-3.323 24.26,-9.97 6.647,-6.647 9.969,-14.725 9.969,-24.266 V 213.039 c 0,-9.517 -3.322,-17.552 -9.969,-24.094 -6.647,-6.53 -14.737,-9.804 -24.26,-9.804 z" />
	</g>
</g>
<g
   transform="translate(-185.18391,-168.57623)"
   id="g14">
</g>
<g
   transform="translate(-185.18391,-168.57623)"
   id="g16">
</g>
<g
   transform="translate(-185.18391,-168.57623)"
   id="g18">
</g>
<g
   transform="translate(-185.18391,-168.57623)"
   id="g20">
</g>
<g
   transform="translate(-185.18391,-168.57623)"
   id="g22">
</g>
<g
   transform="translate(-185.18391,-168.57623)"
   id="g24">
</g>
<g
   transform="translate(-185.18391,-168.57623)"
   id="g26">
</g>
<g
   transform="translate(-185.18391,-168.57623)"
   id="g28">
</g>
<g
   transform="translate(-185.18391,-168.57623)"
   id="g30">
</g>
<g
   transform="translate(-185.18391,-168.57623)"
   id="g32">
</g>
<g
   transform="translate(-185.18391,-168.57623)"
   id="g34">
</g>
<g
   transform="translate(-185.18391,-168.57623)"
   id="g36">
</g>
<g
   transform="translate(-185.18391,-168.57623)"
   id="g38">
</g>
<g
   transform="translate(-185.18391,-168.57623)"
   id="g40">
</g>
<g
   transform="translate(-185.18391,-168.57623)"
   id="g42">
</g>
</svg>
